# xmcd
#
# Track frame offsets: 
#        150
#        19492
#        34847
#        50812
#        66712
#        86367
#        102222
#        119925
#        133502
#        149725
#        163625
#        179112
#        194585
#        214597
#        235556
#        251810
#
# Disc length: 3610 seconds
#
# Revision: 2
# Processed by: cddbd v1.5.2PL0 Copyright (c) Steve Scherf et al.
# Submitted via: ExactAudioCopyFreeDBPlugin 1.0
#
DISCID=030e1810
DTITLE=Mariah Carey - E=MC2
DYEAR=2008
DGENRE=R&B
TTITLE0=Migrate Feat. T-Pain
TTITLE1=Touch My Body
TTITLE2=Cruise Control Feat. Damian Marley
TTITLE3=I Stay in Love
TTITLE4=Side Effects Feat. Young Jeezy
TTITLE5=I'm That Chick
TTITLE6=Love Story
TTITLE7=I'll Be Lovin' U Long Time
TTITLE8=Last Kiss
TTITLE9=Thanx 4 Nothin'
TTITLE10=O.O.C.
TTITLE11=For the Record
TTITLE12=Bye Bye
TTITLE13=I Wish You Well
TTITLE14=Heat
TTITLE15=4real4real Feat. Da Brat
EXTD=
EXTT0=
EXTT1=
EXTT2=
EXTT3=
EXTT4=
EXTT5=
EXTT6=
EXTT7=
EXTT8=
EXTT9=
EXTT10=
EXTT11=
EXTT12=
EXTT13=
EXTT14=
EXTT15=
PLAYORDER=
